<?xml version="1.0" encoding="UTF-8"?>
<svg version="1.1" xmlns="http://www.w3.org/2000/svg" width="1920" height="501">
<path d="M0 0 C18.5727893 15.42310003 26.41014889 38.39065283 29.44287109 61.63989258 C29.67141855 64.2435513 29.6958928 66.79183302 29.67138672 69.4050293 C29.139768 78.50633237 29.139768 78.50633237 32.66748047 86.3894043 C35.35370301 88.00044749 35.35370301 88.00044749 38.35107422 89.3347168 C59.81351893 100.57332555 72.6418977 129.16730576 79.65576172 151.06518555 C82.97152634 162.49169872 84.49325516 173.8553784 85.34326172 185.69018555 C85.45991706 187.17205 85.57775478 188.65382185 85.69677734 190.13549805 C86.63241407 202.00788863 86.63241407 202.00788863 86.81616211 207.28125 C86.84503006 207.95509735 86.87389801 208.6289447 86.90364075 209.32321167 C86.97868827 211.15326378 87.03331821 212.98412125 87.08642578 214.81494141 C88.07865098 220.47938995 91.62186805 224.15993541 95.65576172 228.06518555 C96.31060547 227.80302246 96.96544922 227.54085937 97.64013672 227.27075195 C100.64326409 226.07193999 103.64946123 224.8810166 106.65576172 223.69018555 C108.20070312 223.07143555 108.20070312 223.07143555 109.77685547 222.44018555 C122.11598212 217.56740942 133.41503214 215.81163966 146.65576172 216.06518555 C139.83220348 233.86129973 139.83220348 233.86129973 133.69873047 237.09790039 C129.46815119 238.54128587 125.17293372 239.13402377 120.75292969 239.68432617 C118.46917791 240.09907038 116.47501387 240.79683841 114.31591797 241.64331055 C110.65576172 243.06518555 110.65576172 243.06518555 107.65576172 243.06518555 C108.31576172 245.04518555 108.97576172 247.02518555 109.65576172 249.06518555 C107.48881635 251.23213091 101.97066746 250.41595225 98.90966797 250.49487305 C93.848873 250.72021457 90.20830141 251.83073693 85.65576172 254.06518555 C90.13060045 264.25234927 94.72876711 274.33753847 99.78076172 284.25268555 C111.41367752 307.23082139 122.06088172 330.77550366 130.65576172 355.06518555 C130.9198584 355.80800781 131.18395508 356.55083008 131.45605469 357.31616211 C134.28130376 365.46477522 135.75306128 373.42714133 134.65576172 382.06518555 C133.99576172 383.05518555 133.33576172 384.04518555 132.65576172 385.06518555 C131.99576172 385.06518555 131.33576172 385.06518555 130.65576172 385.06518555 C130.98189453 386.05776367 131.30802734 387.0503418 131.64404297 388.07299805 C141.76880696 419.32298718 141.76880696 419.32298718 137.82373047 432.9362793 C136.65576172 435.06518555 136.65576172 435.06518555 133.65576172 436.06518555 C127.56474639 436.66234391 123.58998026 435.4852937 118.65576172 432.06518555 C105.3699426 421.05816389 96.07504467 404.3230344 90.65576172 388.06518555 C90.26388672 389.19956055 89.87201172 390.33393555 89.46826172 391.50268555 C87.65576172 395.06518555 87.65576172 395.06518555 85.28076172 396.25268555 C81.65671 395.99382471 80.31508745 394.4846343 77.65576172 392.06518555 C59.25953713 365.77135297 54.87300271 323.32338589 47.59326172 292.62768555 C47.2975528 291.38308563 47.00184387 290.13848572 46.69717407 288.85617065 C45.85482899 285.30314626 45.01784656 281.74890949 44.18310547 278.1940918 C43.9273172 277.11439117 43.67152893 276.03469055 43.4079895 274.92227173 C43.17643158 273.92988495 42.94487366 272.93749817 42.70629883 271.91503906 C42.50250107 271.04718277 42.29870331 270.17932648 42.08872986 269.28517151 C41.65576172 267.06518555 41.65576172 267.06518555 41.65576172 264.06518555 C26.66922807 265.98107353 26.66922807 265.98107353 12.65576172 271.06518555 C12.00423056 273.0925766 12.00423056 273.0925766 11.65576172 275.06518555 C10.66576172 275.39518555 9.67576172 275.72518555 8.65576172 276.06518555 C8.32576172 274.74518555 7.99576172 273.42518555 7.65576172 272.06518555 C7.05248047 272.20956055 6.44919922 272.35393555 5.82763672 272.50268555 C5.02841797 272.68831055 4.22919922 272.87393555 3.40576172 273.06518555 C2.61685547 273.25081055 1.82794922 273.43643555 1.01513672 273.62768555 C-1.34423828 274.06518555 -1.34423828 274.06518555 -5.34423828 274.06518555 C-5.67423828 275.71518555 -6.00423828 277.36518555 -6.34423828 279.06518555 C-7.66423828 279.06518555 -8.98423828 279.06518555 -10.34423828 279.06518555 C-10.67423828 278.40518555 -11.00423828 277.74518555 -11.34423828 277.06518555 C-19.20726798 278.01980257 -27.06197496 279.02192677 -34.91064453 280.08862305 C-36.2587875 280.27125174 -37.60693205 280.45386884 -38.95507812 280.63647461 C-40.98883269 280.91208738 -43.02238943 281.18889587 -45.05548096 281.46936035 C-46.98857292 281.73598964 -48.9222577 281.99830993 -50.85595703 282.26049805 C-51.98477295 282.41534668 -53.11358887 282.57019531 -54.27661133 282.72973633 C-57.34423828 283.06518555 -57.34423828 283.06518555 -62.34423828 283.06518555 C-62.34423828 276.46518555 -62.34423828 269.86518555 -62.34423828 263.06518555 C-53.76423828 262.07518555 -45.18423828 261.08518555 -36.34423828 260.06518555 C-35.68423828 258.41518555 -35.02423828 256.76518555 -34.34423828 255.06518555 C-31.81298828 253.3347168 -31.81298828 253.3347168 -28.84423828 251.87768555 C-24.78790707 249.89977237 -24.78790707 249.89977237 -21.34423828 247.06518555 C-20.72846846 244.84453302 -20.72846846 244.84453302 -20.46923828 242.31518555 C-20.34806641 241.4747168 -20.22689453 240.63424805 -20.10205078 239.76831055 C-20.43445318 236.05827082 -22.24521985 234.11590947 -24.34423828 231.06518555 C-25.41021694 228.46801197 -26.23008888 225.79769366 -27.09423828 223.12768555 C-29.53471756 216.11210204 -32.32243057 212.48198238 -38.34423828 208.06518555 C-43.35607278 203.01813909 -48.17511373 196.97428482 -50.23095703 190.1003418 C-51.47178318 186.71745788 -52.87692672 185.09945886 -55.40673828 182.56518555 C-59.11415284 178.5942391 -62.26570838 174.54260924 -65.21923828 170.00268555 C-65.93853516 168.89795898 -66.65783203 167.79323242 -67.39892578 166.6550293 C-75.42830399 152.83997628 -75.61844195 134.92107623 -75.71923828 119.44018555 C-75.73301514 118.26738037 -75.74679199 117.0945752 -75.76098633 115.88623047 C-75.71005288 106.3657508 -74.51867479 97.65092183 -68.34423828 90.06518555 C-64.49583852 86.34126233 -60.85485035 83.06518555 -55.34423828 83.06518555 C-55.19986328 81.82768555 -55.05548828 80.59018555 -54.90673828 79.31518555 C-54.66188954 77.21648202 -54.3984634 75.25337859 -53.81298828 73.22143555 C-53.16282095 70.23066584 -53.2511772 67.37129356 -53.28173828 64.31518555 C-53.29076172 63.1447168 -53.29978516 61.97424805 -53.30908203 60.76831055 C-53.32068359 59.8762793 -53.33228516 58.98424805 -53.34423828 58.06518555 C-56.42929916 57.03683192 -58.61366548 56.93150121 -61.84423828 56.94018555 C-62.80330078 56.93760742 -63.76236328 56.9350293 -64.75048828 56.93237305 C-67.4599498 56.95525582 -67.4599498 56.95525582 -70.34423828 58.06518555 C-71.36705346 60.16238426 -71.36705346 60.16238426 -72.03173828 62.62768555 C-72.28310547 63.45397461 -72.53447266 64.28026367 -72.79345703 65.1315918 C-72.97521484 65.76967773 -73.15697266 66.40776367 -73.34423828 67.06518555 C-79.40014319 61.66863377 -81.00772543 55.63753376 -83.34423828 48.06518555 C-83.59431641 47.31237305 -83.84439453 46.55956055 -84.10205078 45.78393555 C-87.07467587 35.23320987 -86.93081448 21.04361467 -82.34423828 11.06518555 C-81.96525391 10.22729492 -81.58626953 9.3894043 -81.19580078 8.52612305 C-76.12010282 -1.18518346 -67.44109138 -6.884225 -57.16455078 -10.19262695 C-36.77207933 -15.55906681 -16.85465262 -13.32525955 0 0 Z M9.65576172 235.06518555 C7.49075224 237.71530089 5.54493208 240.24990161 3.78076172 243.19018555 C0.19579505 248.04043457 -4.74076704 249.33077778 -10.34423828 251.06518555 C-10.67423828 252.71518555 -11.00423828 254.36518555 -11.34423828 256.06518555 C2.50808217 253.34590786 16.0761932 249.91694322 29.65576172 246.06518555 C27.12072697 244.0849979 24.65030557 242.44153373 21.76513672 241.0222168 C21.05615234 240.67094727 20.34716797 240.31967773 19.61669922 239.95776367 C18.52228516 239.423125 18.52228516 239.423125 17.40576172 238.87768555 C16.28814453 238.32564453 16.28814453 238.32564453 15.14794922 237.76245117 C13.31901854 236.85970975 11.48763076 235.96194934 9.65576172 235.06518555 Z " fill="#FFFFFF" transform="translate(132.34423828125,49.934814453125)"/>
<path d="M0 0 C11.55 0 23.1 0 35 0 C38.26060907 7.17333995 41.39918849 14.29312846 44.29272461 21.60742188 C44.69037018 22.60619354 45.08801575 23.60496521 45.49771118 24.63400269 C46.80178484 27.9112524 48.10206821 31.18999172 49.40234375 34.46875 C50.32548399 36.79066561 51.24887452 39.11248172 52.17250061 41.4342041 C54.35694873 46.92687997 56.53906011 52.42047932 58.71996075 57.91456461 C61.38737999 64.63398158 64.05785376 71.35218374 66.72851562 78.0703125 C67.68039328 80.46484221 68.63226708 82.85937345 69.58413696 85.25390625 C70.0506731 86.42751709 70.51720924 87.60112793 70.99788284 88.81030273 C72.39343571 92.32133849 73.78860292 95.83252728 75.1836853 99.34375 C82.42766757 117.57377987 89.69991174 135.79236787 97 154 C98.55910308 151.66134538 99.57803281 149.82172088 100.61865234 147.2722168 C100.92963364 146.51463074 101.24061493 145.75704468 101.5610199 144.97650146 C101.89924271 144.14249817 102.23746552 143.30849487 102.5859375 142.44921875 C102.95078751 141.55648254 103.31563751 140.66374634 103.69154358 139.74395752 C104.92305603 136.7266295 106.14919281 133.70714994 107.375 130.6875 C108.25135554 128.53522626 109.12773977 126.3829642 110.00415039 124.23071289 C119.07039532 101.93377308 127.9969851 79.58050539 136.91357422 57.22338867 C138.04500759 54.3871113 139.17668634 51.55093198 140.30859375 48.71484375 C140.58299286 48.02728186 140.85739197 47.33971996 141.1401062 46.63132286 C147.35731049 31.05915573 153.67564128 15.52898862 160 0 C170.89 0 181.78 0 193 0 C197.49982929 8.99965859 197.49982929 8.99965859 199.04858398 12.85644531 C199.40176193 13.73112457 199.75493988 14.60580383 200.11882019 15.50698853 C200.49082047 16.43796356 200.86282074 17.3689386 201.24609375 18.328125 C201.64931351 19.32927338 202.05253326 20.33042175 202.4679718 21.36190796 C203.79420782 24.65671717 205.11581332 27.95336355 206.4375 31.25 C207.37301797 33.57615169 208.30889654 35.90215838 209.24511719 38.22802734 C211.19264989 43.06714424 213.13862466 47.90688325 215.08349609 52.74707031 C219.18973088 62.96294726 223.31417226 73.17146345 227.43890381 83.37988281 C228.74494429 86.61248652 230.05052067 89.84527729 231.35595703 93.078125 C239.55850736 113.39032668 247.77672441 133.69618128 256 154 C258.62447055 148.88113056 260.99458349 143.77847667 263.07421875 138.41796875 C263.35483658 137.70386337 263.63545441 136.989758 263.92457581 136.25401306 C264.84889743 133.89980581 265.76811978 131.54364087 266.6875 129.1875 C267.35016699 127.49771976 268.01326292 125.80810768 268.67675781 124.11865234 C270.07605693 120.55505233 271.47379761 116.99084672 272.87060547 113.42626953 C275.96550367 105.53361648 279.08503993 97.65071272 282.20431519 89.76766968 C283.61237498 86.20920075 285.01979291 82.6504781 286.42720032 79.0917511 C287.15036777 77.26318993 287.87358388 75.434648 288.59684753 73.60612488 C290.98908966 67.55778909 293.37931845 61.50866074 295.76855469 55.45913696 C297.47253157 51.14529857 299.17752545 46.83186254 300.88269043 42.51849365 C301.69700073 40.45799334 302.51089905 38.39733016 303.32434082 36.33648682 C308.12159688 24.18352164 312.99454595 12.06885339 318 0 C329.22 0 340.44 0 352 0 C351.16411149 5.01533103 349.95003258 9.09195631 348.0546875 13.72265625 C347.74192368 14.50100327 347.42915985 15.27935028 347.10691833 16.08128357 C346.03530405 18.74402173 344.95502177 21.4031619 343.875 24.0625 C343.08299382 26.02580632 342.29159461 27.98935758 341.50073242 29.953125 C339.69779418 34.42721555 337.89121387 38.89981544 336.08251953 43.37158203 C332.7100903 51.71103073 329.35293543 60.05661125 325.99609375 68.40234375 C324.73687632 71.53265757 323.47758829 74.66294298 322.21826172 77.79321289 C321.89927792 78.58610938 321.58029411 79.37900587 321.25164413 80.19592953 C317.59884694 89.27493588 313.94196488 98.35229631 310.28515625 107.4296875 C305.03903887 120.45249831 299.79546986 133.47633095 294.55487633 146.50136566 C292.46307121 151.7002366 290.37095805 156.89898359 288.27887821 162.09774399 C286.62131802 166.21682421 284.96394722 170.3359804 283.30703735 174.45532227 C279.48399917 183.95968882 275.65758951 193.46268265 271.82260132 202.9622345 C271.2704784 204.32996514 270.71849868 205.6977536 270.16665649 207.06559753 C268.3392129 211.59490089 266.50684771 216.12217906 264.671875 220.6484375 C264.21024963 221.79220856 263.74862427 222.93597961 263.27301025 224.1144104 C262.85388367 225.14577118 262.43475708 226.17713196 262.00292969 227.23974609 C261.63802429 228.14050873 261.2731189 229.04127136 260.89715576 229.96932983 C260 232 260 232 259 233 C256.66702567 233.04092937 254.33294775 233.04241723 252 233 C248.6199307 226.46530291 245.61569034 219.88321139 242.92114258 213.03930664 C242.54533491 212.09563925 242.16952724 211.15197186 241.78233147 210.17970848 C240.97055371 208.13987554 240.16075658 206.09925348 239.35275841 204.05792046 C238.04995419 200.76661932 236.74196393 197.47742123 235.43257141 194.18873596 C234.04404468 190.70123512 232.65580301 187.21362426 231.26908016 183.72540569 C226.1727484 170.90729302 221.03106626 158.10749389 215.88671875 145.30859375 C214.95635275 142.9929859 214.02602443 140.67736292 213.09573364 138.36172485 C211.23215877 133.72321257 209.36827576 129.08482428 207.50415039 124.4465332 C205.12138316 118.51761109 202.73966928 112.58826639 200.35818768 106.65882778 C198.48236408 101.9888354 196.60587262 97.3191116 194.72919655 92.64946175 C193.84997256 90.46143949 192.97097506 88.2733262 192.09222984 86.08511162 C187.11812375 73.69966895 182.10882151 61.33054386 177 49 C176.35967203 50.26871129 175.72072395 51.53811909 175.08235168 52.80781555 C174.72638822 53.51464131 174.37042475 54.22146708 174.00367451 54.9497118 C172.70642791 57.59970377 171.59412101 60.29870092 170.51171875 63.04296875 C170.06094971 64.17895508 169.61018066 65.31494141 169.14575195 66.48535156 C168.66452881 67.70706055 168.18330566 68.92876953 167.6875 70.1875 C166.61385589 72.89527773 165.53734419 75.60191323 164.4609375 78.30859375 C164.04020714 79.36785568 164.04020714 79.36785568 163.61097717 80.44851685 C160.38429119 88.56501242 157.09915616 96.65764762 153.8125 104.75 C153.18037878 106.30727497 152.54829916 107.86456682 151.91625977 109.421875 C150.94406915 111.81726028 149.9718511 114.21263436 148.99946594 116.60794067 C145.20129606 125.96508889 141.41303761 135.32624642 137.625 144.6875 C137.27360962 145.55587494 136.92221924 146.42424988 136.56018066 147.31893921 C136.20806519 148.18910675 135.85594971 149.05927429 135.49316406 149.95581055 C134.77799734 151.72314556 134.06282806 153.49047954 133.34765625 155.2578125 C132.99218719 156.13627335 132.63671814 157.01473419 132.27047729 157.91981506 C129.6806051 164.3195834 127.08866502 170.71851217 124.49609375 177.1171875 C116.95621733 195.7284645 109.42640818 214.34307248 102 233 C99.36 233 96.72 233 94 233 C90.55853372 226.35718547 87.5257725 219.65613397 84.78662109 212.6965332 C84.39700699 211.71718307 84.00739288 210.73783295 83.60597229 209.72880554 C82.32434879 206.50441293 81.04893681 203.27760077 79.7734375 200.05078125 C78.86245806 197.75611156 77.95104147 195.46161538 77.03921509 193.1672821 C74.63266806 187.10909958 72.23116175 181.04893236 69.83099365 174.98822021 C65.5884064 164.27762151 61.33704782 153.57049924 57.0859375 142.86328125 C56.62004274 141.68945641 56.15414799 140.51563156 55.67413521 139.30623627 C46.92391014 117.26432809 38.05833381 95.27034551 29.14575195 73.29367065 C24.37661215 61.53169537 19.628956 49.76101238 14.88085175 37.99053288 C13.41887486 34.3663337 11.9561235 30.74245031 10.49194336 27.11914062 C9.01614623 23.46702221 7.54200192 19.81424097 6.06908226 16.16096115 C5.51984032 14.79949421 4.97000633 13.43826595 4.41954994 12.07728958 C3.67043658 10.22486035 2.92365127 8.37149018 2.17700195 6.51806641 C1.75465775 5.47180084 1.33231354 4.42553528 0.89717102 3.3475647 C0 1 0 1 0 0 Z " fill="#FFFFFF" transform="translate(387,107)"/>
<path d="M0 0 C11.22 0 22.44 0 34 0 C35.09054687 2.55621094 36.18109375 5.11242187 37.3046875 7.74609375 C46.20419956 28.58311387 55.1924879 49.37768259 64.33544922 70.10913086 C64.88445389 71.35480331 64.88445389 71.35480331 65.44454956 72.62564087 C66.12510125 74.16921514 66.80645757 75.71243502 67.48880005 77.25521851 C69.05801612 80.81284947 70.58589694 84.37768663 72 88 C74.23529331 84.64706004 75.725385 81.16410952 77.28125 77.46875 C77.60726196 76.7010025 77.93327393 75.933255 78.26916504 75.14224243 C79.34921592 72.59613188 80.42467209 70.04810846 81.5 67.5 C82.25112785 65.72632594 83.00243271 63.95272684 83.75390625 62.17919922 C90.34058545 46.6190538 96.86590678 31.03300589 103.37304688 15.43945312 C103.74320923 14.5529306 104.11337158 13.66640808 104.49475098 12.75302124 C105.18931634 11.08924459 105.88327793 9.42521571 106.57653809 7.76089478 C108.88851254 2.22297492 108.88851254 2.22297492 110 0 C117.92 0 125.84 0 134 0 C143.03994509 21.20382057 152.04028508 42.42333382 160.9375 63.6875 C161.32935486 64.62373199 161.72120972 65.55996399 162.12493896 66.52456665 C163.23886845 69.1866887 164.35206557 71.84911527 165.46484375 74.51171875 C165.7943251 75.29960785 166.12380646 76.08749695 166.46327209 76.89926147 C168.00363875 80.58874878 169.52929931 84.28199859 171 88 C173.28662134 84.57006799 174.85881022 80.97751718 176.5 77.21484375 C176.84825333 76.42212067 177.19650665 75.62939758 177.55531311 74.81265259 C178.70663293 72.18894427 179.85345972 69.56330009 181 66.9375 C181.7986888 65.11382553 182.59743637 63.2901768 183.39624023 61.46655273 C190.15190745 46.0229771 196.80542619 30.53578587 203.42382812 15.03295898 C203.79156845 14.17181488 204.15930878 13.31067078 204.53819275 12.4234314 C205.22680533 10.8102057 205.91479776 9.19671511 206.60206604 7.58291626 C208.89057157 2.21885687 208.89057157 2.21885687 210 0 C221.22 0 232.44 0 244 0 C240.62520293 10.1243912 240.62520293 10.1243912 238.84960938 14.1887207 C238.44995468 15.10881424 238.05029999 16.02890778 237.63853455 16.97688293 C236.9976162 18.4365876 236.9976162 18.4365876 236.34375 19.92578125 C235.8891188 20.96985641 235.43448761 22.01393158 234.96607971 23.08964539 C233.48081958 26.49877217 231.99035604 29.90559832 230.5 33.3125 C229.45975357 35.6983709 228.41996411 38.08444109 227.38061523 40.47070312 C225.79395283 44.11348243 224.20704951 47.75615404 222.61875916 51.39822388 C218.13141515 61.68879619 213.67252594 71.99145799 209.22689819 82.30010986 C208.06630675 84.99117329 206.90497424 87.68191571 205.7434082 90.37255859 C202.35889106 98.21287239 198.97639726 106.05405387 195.59700012 113.89657593 C194.13909962 117.27903851 192.67989702 120.66093836 191.22042847 124.04272461 C190.54673686 125.60463343 189.87363346 127.16679613 189.20120239 128.72924805 C185.26191451 137.88227333 181.22896974 146.97605466 177 156 C173.37 156 169.74 156 166 156 C155.2633646 131.32662348 144.69615266 106.58471534 134.27363586 81.77696228 C132.41385415 77.35060525 130.54520824 72.92835697 128.66015625 68.51269531 C128.28648926 67.63433014 127.91282227 66.75596497 127.52783203 65.85098267 C126.81686834 64.1804528 126.10313188 62.51109947 125.38623047 60.84310913 C123 55.22465855 123 55.22465855 123 53 C122.34 53 121.68 53 121 53 C120.90444824 53.65355469 120.80889648 54.30710938 120.71044922 54.98046875 C119.77400212 58.96052983 118.22997492 62.55662527 116.6328125 66.3125 C116.2860144 67.1383107 115.93921631 67.9641214 115.58190918 68.81495667 C114.43402951 71.54519042 113.27952963 74.27257244 112.125 77 C111.32169561 78.90729923 110.51880503 80.81477279 109.71630859 82.72241211 C107.58890005 87.77593191 105.45561347 92.82694687 103.3203125 97.87713623 C101.99670053 101.00780405 100.67398017 104.13884706 99.3515625 107.27001953 C98.91578888 108.30180328 98.48001526 109.33358704 98.03103638 110.39663696 C97.16061881 112.45763662 96.29023677 114.51865127 95.41989136 116.5796814 C93.34737745 121.4869911 91.27342151 126.39367811 89.19580078 131.29882812 C88.81049194 132.20946518 88.42518311 133.12010223 88.02819824 134.05833435 C87.3163422 135.74068604 86.60376727 137.42273384 85.89025879 139.10438538 C83.52051749 144.70811046 81.24647401 150.34569679 79 156 C75.37 156 71.74 156 68 156 C61.20290306 143.14506742 55.50823094 129.82421951 49.78137207 116.47041321 C46.15889992 108.02805955 42.48528448 99.6080559 38.8125 91.1875 C38.09553363 89.5424834 37.37857404 87.89746385 36.66162109 86.25244141 C32.12631607 75.85073083 27.56853243 65.45903889 23.00024414 55.07177734 C11.18263412 28.20117156 11.18263412 28.20117156 5.66519165 15.39535522 C4.89577335 13.61068394 4.12310223 11.82741614 3.3503418 10.04418945 C2.90215088 8.999646 2.45395996 7.95510254 1.9921875 6.87890625 C1.60401855 5.9772876 1.21584961 5.07566895 0.81591797 4.14672852 C0 2 0 2 0 0 Z " fill="#FFFFFF" transform="translate(1353,185)"/>
<path d="M0 0 C64.02 0 128.04 0 194 0 C194 10.23 194 20.46 194 31 C167.93 31 141.86 31 115 31 C115 97 115 163 115 231 C103.45 231 91.9 231 80 231 C80 165 80 99 80 31 C53.93 31 27.86 31 1 31 C0.67 30.67 0.34 30.34 0 30 C0 20.1 0 10.2 0 0 Z " fill="#FFFFFF" transform="translate(1155,107)"/>
<path d="M0 0 C16.83494783 14.28750315 23.24541777 34.26802964 25.90625 55.5546875 C25.90625 61.1646875 25.90625 66.7746875 25.90625 72.5546875 C-9.07375 72.5546875 -44.05375 72.5546875 -80.09375 72.5546875 C-72.27103432 96.28845791 -72.27103432 96.28845791 -54.09375 110.8671875 C-37.12610417 118.51891547 -16.27161006 115.51425088 0.5078125 109.19921875 C8.41294836 105.9872191 15.66027382 102.0402918 22.90625 97.5546875 C26.4129391 101.0613766 24.80181816 112.22862729 24.83618164 117.32421875 C24.70142642 128.65927381 24.70142642 128.65927381 21.53515625 132.11328125 C18.03722965 134.24115092 14.83489448 135.41450046 10.90625 136.5546875 C9.66010693 137.08170081 8.42284259 137.63019727 7.1953125 138.19921875 C-0.9306477 141.90195827 -9.29191109 144.08222007 -18.09375 145.5546875 C-18.86847656 145.68617188 -19.64320312 145.81765625 -20.44140625 145.953125 C-40.94328026 148.78889823 -62.98806647 145.63851898 -80.09375 133.5546875 C-99.23968186 118.62745236 -108.71678601 98.34319878 -111.84375 74.6796875 C-111.95100142 73.30634611 -112.03413917 71.93092004 -112.09375 70.5546875 C-112.13371094 69.75675781 -112.17367187 68.95882812 -112.21484375 68.13671875 C-112.76320489 46.29904292 -106.6964566 25.539759 -92.46875 8.7421875 C-69.21625928 -15.4361298 -26.9732345 -21.31975353 0 0 Z M-70.09375 28.5546875 C-75.49668136 35.5192256 -76.88138968 41.70524621 -79.09375 50.5546875 C-54.67375 50.5546875 -30.25375 50.5546875 -5.09375 50.5546875 C-6.52428679 37.67985643 -9.19821061 29.2822288 -19.09375 20.5546875 C-35.56599327 9.78218239 -57.48430465 14.50732295 -70.09375 28.5546875 Z " fill="#FFFFFF" transform="translate(1067.09375,194.4453125)"/>
<path d="M0 0 C13.19974408 10.10350782 19.66774728 22.9643352 22.55198669 39.08522034 C23.10193759 43.8907396 23.13168551 48.60115507 23.11352539 53.43334961 C23.11367142 54.4584967 23.11381744 55.4836438 23.1139679 56.53985596 C23.11327413 59.91070714 23.10550689 63.28150228 23.09765625 66.65234375 C23.09579017 68.99646474 23.09436716 71.34058612 23.09336853 73.68470764 C23.08955836 79.84137049 23.0797409 85.99800959 23.06866455 92.15466309 C23.05841815 98.44229816 23.053864 104.7299371 23.04882812 111.01757812 C23.03811727 123.34506249 23.02105889 135.67252927 23 148 C18.60343827 148.02465504 14.2069128 148.04283842 9.81030273 148.05493164 C8.31355082 148.05997121 6.81680384 148.06680287 5.32006836 148.07543945 C3.17300193 148.08752159 1.02600038 148.09323191 -1.12109375 148.09765625 C-2.4145874 148.10289307 -3.70808105 148.10812988 -5.04077148 148.11352539 C-8 148 -8 148 -9 147 C-9.10083767 145.6692866 -9.13350104 144.3333154 -9.13803101 142.99879456 C-9.14348434 142.13679947 -9.14893768 141.27480438 -9.15455627 140.38668823 C-9.1555986 139.43351715 -9.15664093 138.48034607 -9.15771484 137.49829102 C-9.16279556 136.49983658 -9.16787628 135.50138214 -9.17311096 134.47267151 C-9.18384343 132.29497224 -9.19245222 130.11726175 -9.19923019 127.93954659 C-9.21099186 124.48795393 -9.23044104 121.03648796 -9.25234985 117.58494568 C-9.31403377 107.76769259 -9.36789605 97.95044952 -9.40136719 88.13305664 C-9.42237317 82.1341735 -9.45773363 76.13551626 -9.50212479 70.13676262 C-9.51624843 67.85357267 -9.52499897 65.5703427 -9.52817917 63.28711128 C-9.53311587 60.07992265 -9.55634846 56.8733269 -9.58349609 53.66625977 C-9.58048996 52.73130676 -9.57748383 51.79635376 -9.5743866 50.83306885 C-9.700538 40.74170107 -12.14077089 32.50173918 -19 25 C-25.67230615 18.81591138 -32.29335829 18.47190459 -40.98046875 18.6875 C-49.821398 19.18290579 -56.39053906 23.42161497 -63 29 C-63.72703125 29.60585937 -64.4540625 30.21171875 -65.203125 30.8359375 C-70.63093549 35.03951116 -70.63093549 35.03951116 -73.26171303 41.07143688 C-73.27000916 42.27299404 -73.27000916 42.27299404 -73.2784729 43.49882507 C-73.28963638 44.42009186 -73.30079987 45.34135864 -73.31230164 46.2905426 C-73.31446182 47.29898727 -73.31662201 48.30743195 -73.31884766 49.34643555 C-73.33391609 50.94180145 -73.33391609 50.94180145 -73.34928894 52.56939697 C-73.38022853 56.09183197 -73.39718613 59.61419059 -73.4140625 63.13671875 C-73.43276546 65.57624473 -73.45233821 68.01576419 -73.4727478 70.45527649 C-73.524167 76.8815629 -73.56374036 83.3078703 -73.60089111 89.73425293 C-73.64086943 96.28968542 -73.69198989 102.84502983 -73.7421875 109.40039062 C-73.83906268 122.26686418 -73.92380855 135.13338819 -74 148 C-78.39656173 148.02465504 -82.7930872 148.04283842 -87.18969727 148.05493164 C-88.68644918 148.05997121 -90.18319616 148.06680287 -91.67993164 148.07543945 C-93.82699807 148.08752159 -95.97399962 148.09323191 -98.12109375 148.09765625 C-99.4145874 148.10289307 -100.70808105 148.10812988 -102.04077148 148.11352539 C-105 148 -105 148 -106 147 C-106.09666937 145.03838396 -106.12187097 143.07323355 -106.12025452 141.10923767 C-106.12162918 139.82891159 -106.12300385 138.54858551 -106.12442017 137.22946167 C-106.12088055 135.79742409 -106.11724573 134.36538674 -106.11352539 132.93334961 C-106.11324353 131.43568422 -106.11340124 129.9380187 -106.1139679 128.44035339 C-106.11425591 124.36201828 -106.10835864 120.28371233 -106.10139394 116.20538402 C-106.09516095 111.94792372 -106.09455665 107.69046282 -106.09336853 103.43299866 C-106.09025505 95.36526813 -106.08204144 87.29755109 -106.07201904 79.22982651 C-106.06085842 70.04739221 -106.05534758 60.86495728 -106.05032361 51.68251789 C-106.03985884 32.78833605 -106.02151315 13.89417271 -106 -5 C-95.44 -5 -84.88 -5 -74 -5 C-73.505 3.415 -73.505 3.415 -73 12 C-71.5975 10.659375 -70.195 9.31875 -68.75 7.9375 C-50.24879921 -8.67956153 -21.58423021 -15.20016212 0 0 Z " fill="#FFFFFF" transform="translate(1795,190)"/>
<path d="M0 0 C0.34057617 2.98095703 0.34057617 2.98095703 0.29296875 6.7578125 C0.28872391 7.42086395 0.28447906 8.08391541 0.28010559 8.76705933 C0.26329971 10.88678441 0.22564701 13.00556188 0.1875 15.125 C0.17245549 16.56118419 0.15876668 17.99738328 0.14648438 19.43359375 C0.1133909 22.95603764 0.0615968 26.47792636 0 30 C-4.57217615 29.21498713 -8.06810784 27.46523867 -12.0625 25.1875 C-24.69821828 18.20722196 -39.25852076 13.14219907 -53.80859375 16.68359375 C-57.67605578 18.21406723 -59.6250231 19.49267832 -62.125 22.875 C-63.15529376 26.55462056 -63.20940161 28.37179516 -62 32 C-58.85434961 36.15912578 -55.8503996 39.12130242 -51.5 42.0625 C-50.95666016 42.43189697 -50.41332031 42.80129395 -49.85351562 43.18188477 C-45.39599034 46.17078428 -40.82351848 48.96564622 -36.24365234 51.76196289 C-0.10920035 73.82912289 -0.10920035 73.82912289 5 89 C5.22042969 89.64453125 5.44085937 90.2890625 5.66796875 90.953125 C8.60481658 100.96600216 7.10096135 111.3054012 2.74609375 120.70703125 C-3.9755741 132.63020773 -13.54767308 139.97534015 -26.66577148 143.83666992 C-51.2314654 150.37783102 -75.02652198 142.98673901 -97 132 C-97 120.78 -97 109.56 -97 98 C-92.83814969 99.66474012 -89.82060268 101.32387916 -86.125 103.75 C-74.17295913 111.31945334 -57.40451019 119.22926943 -43 117 C-37.00540732 115.40307982 -32.10385548 113.83240511 -28 109 C-26.33370335 104.00111004 -26.35997479 100.36198602 -28.6171875 95.55859375 C-30.86611697 91.82506391 -33.77065789 89.58305902 -37.4375 87.3125 C-38.07856689 86.8987915 -38.71963379 86.48508301 -39.38012695 86.05883789 C-45.02663778 82.47249554 -50.85858908 79.21512505 -56.6875 75.9375 C-72.92150463 66.80252141 -87.88504857 56.45352156 -95.375 38.75 C-97.30423109 27.17461345 -96.53796217 16.38858863 -90.3125 6.3125 C-82.47913399 -4.57357482 -71.66776801 -9.81938195 -58.703125 -12.4921875 C-38.50487422 -15.26198982 -17.15176375 -11.43450916 0 0 Z " fill="#FFFFFF" transform="translate(923,195)"/>
<path d="M0 0 C10.23 0 20.46 0 31 0 C32 1 32 1 32.12304783 3.49688816 C32.12166514 5.17685587 32.12166514 5.17685587 32.12025452 6.89076233 C32.12162918 8.17108841 32.12300385 9.45141449 32.12442017 10.77053833 C32.12088055 12.20257591 32.11724573 13.63461326 32.11352539 15.06665039 C32.11324353 16.56431578 32.11340124 18.0619813 32.1139679 19.55964661 C32.11425591 23.63798172 32.10835864 27.71628767 32.10139394 31.79461598 C32.09516095 36.05207628 32.09455665 40.30953718 32.09336853 44.56700134 C32.09025505 52.63473187 32.08204144 60.70244891 32.07201904 68.77017349 C32.06085842 77.95260779 32.05534758 87.13504272 32.05032361 96.31748211 C32.03985884 115.21166395 32.02151315 134.10582729 32 153 C21.44 153 10.88 153 0 153 C0 102.51 0 52.02 0 0 Z " fill="#FFFFFF" transform="translate(1617,185)"/>
<path d="M0 0 C10.56 0 21.12 0 32 0 C32 50.49 32 100.98 32 153 C21.77 153 11.54 153 1 153 C0 152 0 152 -0.12304783 149.50311184 C-0.12212604 148.38313336 -0.12120424 147.26315489 -0.12025452 146.10923767 C-0.12162918 144.82891159 -0.12300385 143.54858551 -0.12442017 142.22946167 C-0.12088055 140.79742409 -0.11724573 139.36538674 -0.11352539 137.93334961 C-0.11324353 136.43568422 -0.11340124 134.9380187 -0.1139679 133.44035339 C-0.11425591 129.36201828 -0.10835864 125.28371233 -0.10139394 121.20538402 C-0.09516095 116.94792372 -0.09455665 112.69046282 -0.09336853 108.43299866 C-0.09025505 100.36526813 -0.08204144 92.29755109 -0.07201904 84.22982651 C-0.06085842 75.04739221 -0.05534758 65.86495728 -0.05032361 56.68251789 C-0.03985884 37.78833605 -0.02151315 18.89417271 0 0 Z " fill="#FFFFFF" transform="translate(760,185)"/>
<path d="M0 0 C15.73872294 -1.16583133 28.64487876 10.36646166 40 20 C43.37767836 22.95274463 46.6899139 25.97193918 50 29 C50.91394531 29.80953125 51.82789063 30.6190625 52.76953125 31.453125 C60.71548454 38.5587432 67.9794221 46.19634963 75.19238281 54.03955078 C76.88725164 55.87771889 78.5932522 57.70460821 80.3046875 59.52734375 C85.72009899 65.31073529 90.88799194 71.20074809 95.8515625 77.3828125 C98.01511772 80.01841613 100.2638956 82.54423375 102.5625 85.0625 C106.11321008 88.96766996 109.45393696 92.97920566 112.71875 97.125 C114.45115832 99.30830911 116.19966932 101.47172503 117.96875 103.625 C124.23117005 111.25490109 130.32929375 118.95829883 136.12988281 126.94775391 C138.2706832 129.86372283 139.96127806 131.97418537 143 134 C145.3384302 133.47067545 145.3384302 133.47067545 147.82421875 132.296875 C149.24444336 131.69166016 149.24444336 131.69166016 150.69335938 131.07421875 C151.68142578 130.63722656 152.66949219 130.20023438 153.6875 129.75 C166.91670974 123.9935774 178.56701137 121.72362362 193 122 C186.17644177 139.79611419 186.17644177 139.79611419 180.04296875 143.03271484 C175.81238947 144.47610033 171.517172 145.06883823 167.09716797 145.61914062 C164.81341619 146.03388484 162.81925215 146.73165286 160.66015625 147.578125 C157 149 157 149 154 149 C154.66 150.98 155.32 152.96 156 155 C155 156 155 156 151.9375 156.0625 C150.968125 156.041875 149.99875 156.02125 149 156 C148.92652344 155.29875 148.85304687 154.5975 148.77734375 153.875 C147.79924237 150.2574994 145.88444955 147.85099033 143.5625 145 C142.64557297 143.84265414 141.72891361 142.68509619 140.8125 141.52734375 C140.10867187 140.64731689 140.10867187 140.64731689 139.390625 139.74951172 C137.24400735 137.04890392 135.15631846 134.30408569 133.0625 131.5625 C120.54605085 115.27836923 107.73175217 99.23760602 94.38574219 83.62402344 C92.94270908 81.93285779 91.50625183 80.23625381 90.0703125 78.5390625 C83.70894347 71.04143851 77.16186242 63.75295203 70.45263672 56.56591797 C69.03161227 55.0340775 67.62462542 53.49068919 66.22265625 51.94140625 C57.33446257 42.12371788 48.2205926 32.45064278 38 24 C37.48099121 23.56187988 36.96198242 23.12375977 36.42724609 22.67236328 C25.37502559 13.36862063 14.14772893 4.90282178 0 1 C0 0.67 0 0.34 0 0 Z " fill="#FFFFFF" transform="translate(86,144)"/>
<path d="M0 0 C4.14677499 3.5491245 5.82065275 7.62815783 6.69921875 12.9453125 C7.01239887 17.66710505 6.2577734 21.46130752 3.76171875 25.5078125 C0.15248209 29.60797807 -3.78960061 32.52704998 -9.23828125 33.5078125 C-15.28375205 33.58546075 -20.53133729 32.4302658 -25.23828125 28.5078125 C-28.81656204 24.43821337 -31.05586726 20.83359081 -31.48828125 15.3203125 C-31.07841843 9.06990445 -29.67256566 4.45919653 -24.98828125 0.1328125 C-16.92512647 -6.07091455 -8.11687687 -5.58134952 0 0 Z " fill="#FFFFFF" transform="translate(1645.23828125,125.4921875)"/>
<path d="M0 0 C5.18237805 3.58780019 7.77554149 7.10642287 9.25 13.25 C9.91352493 19.22172435 8.57200609 23.36952192 5.25 28.25 C1.89949379 31.97696758 -1.81608881 34.28256643 -6.75 35.25 C-13.43020764 35.46147771 -18.70630306 33.66608759 -23.75 29.25 C-27.37357667 24.94569361 -29.02863851 19.86563761 -28.75 14.25 C-27.61736421 9.23669407 -25.54725287 4.75515649 -21.75 1.25 C-14.18066815 -2.9716167 -7.90659398 -4.09598499 0 0 Z " fill="#FFFFFF" transform="translate(785.75,123.75)"/>
<path d="M0 0 C-6.80448575 17.74637237 -6.80448575 17.74637237 -12.89257812 21.01660156 C-17.12605001 22.4752433 -21.48349445 23.07229087 -25.90820312 23.65966797 C-30.77331865 24.45121454 -35.37260817 26.35991176 -40 28 C-43.63 23.38 -47.26 18.76 -51 14 C-48.25602038 11.25602038 -47.04308664 10.39131211 -43.61328125 9.02734375 C-42.75669922 8.68509766 -41.90011719 8.34285156 -41.01757812 7.99023438 C-39.67856445 7.46913086 -39.67856445 7.46913086 -38.3125 6.9375 C-37.43916016 6.58623047 -36.56582031 6.23496094 -35.66601562 5.87304688 C-23.84680472 1.20362001 -12.66085098 -0.24244183 0 0 Z " fill="#FFFFFF" transform="translate(279,266)"/>
<path d="M0 0 C5.21979128 -0.1799928 9.07262981 0.02905192 14 2 C13.01 2.495 13.01 2.495 12 3 C11.67 3.66 11.34 4.32 11 5 C7.37 3.68 3.74 2.36 0 1 C0 0.67 0 0.34 0 0 Z " fill="#FFFFFF" transform="translate(86,144)"/>
</svg>
