<?xml version="1.0" standalone="no"?>
<!DOCTYPE svg PUBLIC "-//W3C//DTD SVG 20010904//EN"
 "http://www.w3.org/TR/2001/REC-SVG-20010904/DTD/svg10.dtd">
<svg version="1.0" xmlns="http://www.w3.org/2000/svg"
 width="263.000000pt" height="452.000000pt" viewBox="0 0 263.000000 452.000000"
 preserveAspectRatio="xMidYMid meet">
<metadata>
Created by potrace 1.16, written by Peter Selinger 2001-2019
</metadata>
<g transform="translate(0.000000,452.000000) scale(0.100000,-0.100000)"
fill="#000000" stroke="none">
<path d="M624 4266 c-210 -48 -317 -197 -301 -421 10 -133 69 -295 109 -295
11 0 18 7 18 19 0 28 37 69 68 76 31 6 82 -9 94 -28 11 -18 10 -86 -3 -148
-11 -51 -14 -55 -63 -79 -94 -47 -136 -146 -136 -320 0 -105 22 -277 45 -355
15 -55 68 -136 146 -225 27 -31 49 -63 49 -71 0 -27 60 -112 125 -179 53 -54
69 -78 91 -140 14 -41 33 -83 41 -92 12 -13 14 -29 9 -63 -7 -42 -11 -48 -58
-73 -52 -28 -83 -52 -89 -70 -2 -6 -42 -15 -89 -21 -47 -6 -100 -14 -118 -17
l-33 -5 3 -92 3 -92 40 3 c54 4 386 51 407 58 11 3 19 -2 23 -16 9 -29 49 -23
53 7 3 17 14 25 45 33 23 6 48 13 55 15 7 3 12 -4 12 -16 0 -30 42 -21 50 10
5 21 17 28 85 46 44 12 101 24 126 27 l47 5 27 -116 c158 -677 246 -973 312
-1052 34 -40 78 -40 100 0 l17 28 41 -91 c70 -155 161 -273 244 -316 40 -20
106 -27 126 -12 18 13 35 62 35 101 0 47 -32 203 -58 287 -19 61 -19 62 1 79
17 15 19 26 15 88 -9 130 -96 354 -322 825 -69 145 -126 266 -126 268 0 2 15
11 33 21 21 11 56 17 107 17 78 1 79 2 69 46 -4 14 86 48 230 88 29 8 112 136
108 166 -2 17 -10 19 -75 17 -88 -3 -153 -19 -285 -71 l-100 -39 -18 22 c-52
61 -55 75 -68 269 -18 290 -52 442 -139 614 -82 162 -225 331 -325 384 l-47
25 0 91 c0 358 -171 664 -425 760 -86 33 -235 42 -331 20z m189 -994 c105 -48
223 -146 428 -351 238 -239 465 -503 682 -792 26 -35 68 -89 93 -119 50 -62
76 -108 68 -121 -7 -13 -34 -11 -34 2 0 21 -338 451 -554 704 -158 185 -460
487 -566 564 -84 62 -152 102 -220 127 l-35 13 38 0 c21 1 64 -11 100 -27z
m468 -1311 l71 -39 -53 -15 c-106 -31 -205 -55 -246 -61 -35 -5 -41 -4 -37 9
4 8 12 15 19 15 18 0 115 49 115 58 0 14 40 72 49 72 5 0 42 -18 82 -39z"/>
</g>
</svg>
